# xmcd
#
# Track frame offsets: 
#        182
#        27432
#        49167
#        75250
#        94787
#        114130
#        131080
#        151202
#        169927
#        187927
#        206637
#        221780
#        238805
#        257002
#
# Disc length: 3644 seconds
#
# Revision: 9
# Processed by: cddbd v1.5.2PL0 Copyright (c) Steve Scherf et al.
# Submitted via: ExactAudioCopy v0.99pb5
#
DISCID=b90e3a0e
DTITLE=Lionel Richie - Back To Front
DYEAR=1992
DGENRE=Pop
TTITLE0=Do It To Me
TTITLE1=My Destiny
TTITLE2=Love, Oh Love
TTITLE3=All Night Long
TTITLE4=Easy
TTITLE5=Still
TTITLE6=Endless Love
TTITLE7=Running With The Night
TTITLE8=Sail On
TTITLE9=Hello
TTITLE10=Truly
TTITLE11=Penny Lover
TTITLE12=Say You, Say Me
TTITLE13=Three Times A Lady
EXTD=YEAR: 1992 ID3G: 13
EXTT0=
EXTT1=
EXTT2=
EXTT3=
EXTT4=
EXTT5=
EXTT6=
EXTT7=
EXTT8=
EXTT9=
EXTT10=
EXTT11=
EXTT12=
EXTT13=
PLAYORDER=
